<svg xmlns="http://www.w3.org/2000/svg" viewBox="0 0 96 96">
  <defs>
    <filter id="a" width="1.25" height="1.25" x="-0.125" y="-0.125" color-interpolation-filters="sRGB">
      <feGaussianBlur stdDeviation="2"/>
    </filter>
    <linearGradient id="b" x1="9" y1="14" x2="20" y2="40.5" gradientUnits="userSpaceOnUse">
      <stop stop-color="#333" offset="0"/>
      <stop stop-color="#000" offset="1"/>
    </linearGradient>
  </defs>
  <path filter="url(#a)" opacity=".2" stroke="none" d="M32.2675 28.732a2.5 2.5 0 0 1-1.768 4.268h-7.3745l4.811 11.191a4 4 0 0 1-2.13 5.243l-2.75 1.252a4 4 0 0 1-5.24-2.13l-4.566-10.806-3.982 4.018a2.5 2.5 0 0 1-4.268-1.768v-32.4954a2.5 2.5 0 0 1 4.27 -1.77z"/>
  <path fill="#fff" stroke="none" d="M30.268 26.732a2.5 2.5 0 0 1-1.768 4.268h-7.375l4.811 11.191a4 4 0 0 1-2.129 5.243l-1.75 0.75a4 4 0 0 1-5.243-2.129l-4.79-11.083-4.756 4.796a2.5 2.5 0 0 1-4.268-1.768v-32.5a2.5 2.5 0 0 1 4.268-1.768z"/>
<!--
  <circle cx="5.5" cy="5.5" r="2.5" fill="#fff" stroke="none"/>
  <circle cx="5.5" cy="38" r="2.5" fill="#fff" stroke="none"/>
  <circle cx="28.5" cy="28.5" r="2.5" fill="#fff" stroke="none"/>
  <circle cx="20.5" cy="44.5" r="4" fill="#fff" stroke="none"/>
  <circle cx="22.25" cy="43.75" r="4" fill="#fff" stroke="none"/>
  <circle cx="5.5" cy="5.5" r="0.5" fill="#000" stroke="none"/>
  <circle cx="5.5" cy="38" r="0.5" fill="#000" stroke="none"/>
  <circle cx="28.5" cy="28.5" r="0.5" fill="#000" stroke="none"/>
  <circle cx="20.5" cy="44.5" r="2" fill="#000" stroke="none"/>
  <circle cx="22.25" cy="43.75" r="2" fill="#000" stroke="none"/>
-->
  <path fill="url(#b)" stroke="none" d="M28.853 28.146a0.5 0.5 0 0 1-0.354 0.854h-10.399l5.993 13.97a2 2 0 0 1-1.063 2.622l-1.75 0.75a2 2 0 0 1-2.623-1.065l-5.957-13.777-6.846 6.855a 0.5 0.5 0 0 1-0.854-0.354v-32.5a0.50.5 0 0 1 0.854-0.354z"/>
</svg>